# xmcd
#
# Track frame offsets:
#	150
#	16543
#	38615
#	73572
#	96458
#	115788
#	141667
#
# Disc length: 2461 seconds
#
# Revision: 14
# Processed by: cddbd v1.5.2PL0 Copyright (c) Steve Scherf et al.
# Submitted via: Jack! The Knife 20 Magnifico
#
DISCID=58099b07
DTITLE=Scorpions - Fly To The Rainbow
DYEAR=1974
DGENRE=Rock
TTITLE0=Speedy's Coming
TTITLE1=They Need A Million
TTITLE2=Drifting Sun
TTITLE3=Fly People Fly
TTITLE4=This Is My Song
TTITLE5=Far Away
TTITLE6=Fly To The Rainbow
EXTD=Conny Plank
EXTT0=R. Schenker, Meine
EXTT1=R. Schenker, Meine
EXTT2=Ulrich Roth
EXTT3=M. Schenker, Meine
EXTT4=R. Schenker, Meine
EXTT5=M. Schenker, R. Schenker, Meine
EXTT6=M. Schenker, Roth
PLAYORDER=
